# xmcd CD database file
#
# Track frame offsets:
#	150
#	15180
#	32440
#	47785
#	64730
#	82450
#	109362
#	127065
#	142367
#	164025
#	183845
#	197172
#
# Disc length: 2942 seconds
#
# Revision: 0
# Processed by: cddbd v1.5PL3 Copyright (c) Steve Scherf et al.
# Submitted via: cdripper 1.0.7
#
DISCID=b30b7c0c
DTITLE=Lil Ronnie and the Blue Beats - There's A Party Goin' On!
DYEAR=1991
DGENRE=Blues
TTITLE0=Let's Call It Even
TTITLE1=There's A Party Goin' On!
TTITLE2=Hound Dog
TTITLE3=Too Many Bad Habits
TTITLE4=Two Wrongs
TTITLE5=Someday
TTITLE6=Cold Cold Cash
TTITLE7=Pity The Fool
TTITLE8=When the Lovin Is Gone
TTITLE9=Sat. Nite Fish Fry
TTITLE10=Heart In Harms Way
TTITLE11=Let's Burn It Up
EXTD=YEAR: 1991
EXTT0=
EXTT1=
EXTT2=
EXTT3=
EXTT4=
EXTT5=
EXTT6=
EXTT7=
EXTT8=
EXTT9=
EXTT10=
EXTT11=
PLAYORDER=
